# xmcd
#
# Track frame offsets: 
#        150
#        14470
#        29637
#        44312
#        58197
#        73262
#        85842
#        100547
#        113727
#        127877
#        141540
#        154562
#        168095
#        181342
#        196325
#        209692
#        224725
#        238532
#        252280
#        267502
#        280307
#        292877
#        305407
#        321387
#
# Disc length: 4499 seconds
#
# Revision: 0
# Processed by: cddbd v1.5.2PL0 Copyright (c) Steve Scherf et al.
# Submitted via: ExactAudioCopyFreeDBPlugin 1.0
#
DISCID=6f119118
DTITLE=Various Artist - George Williams and Bessie Brown Vol. 2 Plus More Vocal
DTITLE=Duets
DYEAR=1997
DGENRE=Blues
TTITLE0=George Williams and Bessie Brown - Bald-Headed Mamma Blues
TTITLE1=George Williams and Bessie Brown - She's My Sheba, I'm Her She
TTITLE1=ik
TTITLE2=George Williams and Bessie Brown - Cheatin' Blues
TTITLE3=George Williams and Bessie Brown - What Makes Papa Hate Mama S
TTITLE3=o?
TTITLE4=George Williams and Bessie Brown - Oh! Dark Gal
TTITLE5=George Williams and Bessie Brown - Some Baby -- My Gal
TTITLE6=George Williams and Bessie Brown - Levee Blues
TTITLE7=George Williams and Bessie Brown - You Can't Proposition Me
TTITLE8=George Williams and Bessie Brown - Hit Me but Don't Quit Me
TTITLE9=George Williams and Bessie Brown - When I Get the Devil in Me
TTITLE10=George Williams and Bessie Brown - West Virginia Blues
TTITLE11=George Williams and Bessie Brown - It Ain't a Doggone Thing b
TTITLE11=ut the Blues
TTITLE12=George Williams and Bessie Brown - Yodelin' the Blues Away
TTITLE13=Eddie Hunter and Alex Rogers - I'm Done
TTITLE14=Eddie Hunter and Alex Rogers - Bootlegger's Ball
TTITLE15=Louella Jones and Jazz Caspar - Who Calls You Sweet Mama Now
TTITLE16=Louella Jones and Jazz Caspar - Sweet Mandy
TTITLE17=Mike Jackson and Mabel Richardson - Just Too Bad
TTITLE18=Mike Jackson and Mabel Richardson - I'm Gonna Kill Myself
TTITLE19=Harris and Harris - I Don't Care What You Say
TTITLE20=Harris and Harris - That Same Cat
TTITLE21=Pete and Repeat - Toodle-Oodle-Ooo
TTITLE22=Pete and Repeat - Hymn Singing Bill
TTITLE23=Hilda Alexander and Mamie McClure - He's Tight Like This
EXTD=
EXTT0=
EXTT1=
EXTT2=
EXTT3=
EXTT4=
EXTT5=
EXTT6=
EXTT7=
EXTT8=
EXTT9=
EXTT10=
EXTT11=
EXTT12=
EXTT13=
EXTT14=
EXTT15=
EXTT16=
EXTT17=
EXTT18=
EXTT19=
EXTT20=
EXTT21=
EXTT22=
EXTT23=
PLAYORDER=
